<?xml version="1.0" encoding="UTF-8" standalone="no"?>
<!DOCTYPE svg PUBLIC "-//W3C//DTD SVG 1.1//EN" "http://www.w3.org/Graphics/SVG/1.1/DTD/svg11.dtd">
<svg width="100%" height="100%" viewBox="0 0 926 294" version="1.1" xmlns="http://www.w3.org/2000/svg" xmlns:xlink="http://www.w3.org/1999/xlink" xml:space="preserve" xmlns:serif="http://www.serif.com/" style="fill-rule:evenodd;clip-rule:evenodd;stroke-linejoin:round;stroke-miterlimit:2;">
    <path d="M640.204,44.59L725.055,44.59L633.701,146.415L728.305,293.376L643.089,293.376L583.15,193.717L561.485,216.104L561.485,293.376L488.907,293.376L488.907,239.644L640.204,44.59ZM912.097,138.832L912.097,192.634L798.716,192.634L798.716,239.213L925.457,239.213L917.152,293.376L728.666,293.376L728.666,44.59L916.791,44.59L916.791,98.752L798.716,98.752L798.716,138.832L912.097,138.832Z" style="fill:rgb(255,197,81);"/>
    <g transform="matrix(1.045795,0,0,1.045795,-128.496574,-367.372885)">
        <path d="M561.143,589.178L511.991,589.178L511.991,351.286L582.081,351.286L582.081,562.184L561.143,589.178ZM611.084,524.794L611.084,351.286L680.483,351.286L680.483,435.323L611.084,524.794ZM122.87,589.178L122.87,351.286L192.96,351.286L192.96,537.387L304.828,537.387L297.232,589.178L122.87,589.178ZM487.131,441.402L487.131,492.847L378.716,492.847L378.716,537.387L499.906,537.387L491.965,589.178L311.733,589.178L311.733,351.286L491.62,351.286L491.62,403.076L378.716,403.076L378.716,441.402L487.131,441.402Z" style="fill:rgb(27,21,8);"/>
    </g>
</svg>
